<svg width="49" height="64" viewBox="0 0 49 64" fill="none" xmlns="http://www.w3.org/2000/svg">
<rect width="49" height="64" rx="5" fill="#F4F3F3"/>
<path d="M16.0134 31.2624C16.0134 30.7192 16.285 25.6938 16.285 25.6938L19.2731 22.1625L22.5328 20.6685L27.1506 19.4461L31.6327 22.1625L31.9043 23.5207C31.9043 23.5207 31.6327 26.1013 32.0402 27.4595C32.4476 28.8177 32.5834 30.9908 32.3118 31.8057C32.0402 32.6206 31.4969 33.2997 31.0894 34.1147C30.682 34.9296 29.4596 36.5594 29.1879 37.7818C28.9163 39.0042 28.9163 40.3624 29.1879 40.7698C29.4596 41.1773 34.6207 43.0788 36.2506 44.437C37.8804 45.7952 40.461 50.5489 40.461 50.5489H8C8 50.5489 10.7164 45.6594 12.0746 44.437C13.4328 43.2146 18.7298 41.3131 19.0014 40.9057C19.2731 40.4982 19.4089 38.7325 19.2731 37.7818C19.1372 36.8311 17.0999 33.5714 16.6925 33.1639C16.285 32.7565 16.0134 31.8057 16.0134 31.2624Z" fill="#E4E4E4"/>
<path d="M23.9513 26.1013C23.1364 26.2371 20.4405 25.1049 18.3223 24.4714C17.4109 24.7218 16.8225 25.589 16.2095 27.4595C16.2095 27.4595 16.0737 24.8789 16.2095 23.7923C16.3454 22.7058 17.4319 21.2117 17.5677 20.6685C17.7036 20.1252 17.8394 18.767 17.7036 17.5446C17.6016 16.6271 18.1884 17.0104 19.0618 16.6843C19.3519 16.576 19.6738 16.3893 20.0125 16.0506C20.0125 16.0506 20.1183 16.018 20.2841 15.9688C20.4609 15.9164 20.7057 15.8451 20.9632 15.7743C20.9632 15.7743 21.2579 15.6302 21.5986 15.5481C21.7736 15.4923 21.9515 15.4641 22.1856 15.5073C22.6766 15.5979 23.8155 14.1153 23.8155 14.1153C23.8714 14.0658 23.9176 14.0301 23.9513 14.0133C24.0975 13.9402 24.3225 14.1819 24.499 14.4207C24.6504 14.6256 24.7662 14.8282 24.7662 14.8282H26.396C26.4093 14.8283 26.4166 14.8375 26.4186 14.8549L30.8781 20.1252L32.2363 23.1132L31.9647 27.4595L31.5572 23.3849L30.6065 21.755C28.2229 23.7302 24.7662 25.9654 23.9513 26.1013Z" fill="#CDCDCD"/>
<mask id="mask0_678_3177" style="mask-type:alpha" maskUnits="userSpaceOnUse" x="16" y="14" width="17" height="14">
<path d="M23.9513 26.1013C23.1364 26.2371 20.4405 25.1049 18.3223 24.4714C17.4109 24.7218 16.8225 25.589 16.2095 27.4595C16.2095 27.4595 16.0737 24.8789 16.2095 23.7923C16.3454 22.7058 17.4319 21.2117 17.5677 20.6685C17.7036 20.1252 17.8394 18.767 17.7036 17.5446C17.6016 16.6271 18.1884 17.0104 19.0618 16.6843C19.3519 16.576 19.6738 16.3893 20.0125 16.0506C20.0125 16.0506 20.1183 16.018 20.2841 15.9688C20.4609 15.9164 20.7057 15.8451 20.9632 15.7743C20.9632 15.7743 21.2579 15.6302 21.5986 15.5481C21.7736 15.4923 21.9515 15.4641 22.1856 15.5073C22.6766 15.5979 23.8155 14.1153 23.8155 14.1153C23.8714 14.0658 23.9176 14.0301 23.9513 14.0133C24.0975 13.9402 24.3225 14.1819 24.499 14.4207C24.6504 14.6256 24.7662 14.8282 24.7662 14.8282H26.396C26.4093 14.8283 26.4166 14.8375 26.4186 14.8549L30.8781 20.1252L32.2363 23.1132L31.9647 27.4595L31.5572 23.3849L30.6065 21.755C28.2229 23.7302 24.7662 25.9654 23.9513 26.1013Z" fill="#CDCDCD"/>
</mask>
<g mask="url(#mask0_678_3177)">
<path d="M23.7879 19.4813C22.8372 19.4813 19.4417 17.0365 19.17 16.7649C18.8984 16.4932 20.2237 15.779 20.4954 15.779C20.767 15.779 23.2446 17.7156 23.5163 17.8514C23.7879 17.9873 24.7058 17.0717 24.8416 16.7649C24.9774 16.458 24.7058 14.8282 24.7058 14.8282C25.6565 14.8282 26.6191 14.7943 27.0147 15.2357C27.0147 15.2357 24.7387 19.4813 23.7879 19.4813Z" fill="#C6C5C5"/>
<path d="M23.4835 16.5939C24.0268 16.4128 24.8417 14.8282 24.8417 14.8282L25.385 14.1491L23.4835 13.6058L21.582 15.5073C21.582 15.5073 22.9402 16.775 23.4835 16.5939Z" fill="#C4C4C4"/>
</g>
<path d="M23.7211 21.9322L24.0045 20.9401L24.7132 21.6487H25.9887L25.2222 22.3574L25.7052 23.3494L24.5714 23.066L23.4376 24.1998L23.5794 22.7825L22.729 22.3574L23.5794 22.2156L23.7211 21.9322Z" fill="white"/>
</svg>
